<svg width="1080" height="115" viewBox="0 0 1080 115" fill="none" xmlns="http://www.w3.org/2000/svg">
<path d="M103.419 0H41.9635L0 41.9635L72.7033 114.667L145.407 41.9635L103.419 0ZM93.8987 80.3363H51.4773L23.7174 52.5765L72.7033 3.59059L121.689 52.5765L93.9293 80.3363H93.9048H93.8987Z" fill="#FDFDFD"/>
<path d="M219.675 108.575C243.579 108.575 256.925 94.7991 258.814 73.2127H245.639C244.351 86.6881 237.099 96.2582 219.718 96.2582C200.148 96.2582 192.767 84.2419 192.767 65.2304V47.8497C192.767 28.8811 200.148 16.8218 219.718 16.8218C237.528 16.8218 244.351 26.9499 245.939 41.0261H259.114C257.355 18.8389 243.879 4.50513 219.675 4.50513C194.183 4.50513 179.678 20.1692 179.678 47.8497V65.2304C179.678 92.9108 194.183 108.575 219.675 108.575Z" fill="#FDFDFD"/>
<path d="M288.769 107.246H296.88V95.6584H284.263V0H271.946V92.1823C271.946 101.323 277.31 107.246 288.769 107.246Z" fill="#FDFDFD"/>
<path d="M332.542 108.534C348.936 108.534 361.382 99.5643 362.669 83.9002H350.352C349.065 93.7707 341.512 96.9465 332.542 96.9465C321.814 96.9465 314.261 92.612 314.261 77.5487V74.6305H362.798V62.9146C362.497 41.7573 349.88 31.8867 332.5 31.8867C313.96 31.8867 301.901 43.1735 301.901 62.9146V77.5487C301.901 97.2469 313.917 108.577 332.457 108.577L332.542 108.534ZM314.303 63.7729V62.9146C314.303 48.1517 321.857 43.2164 332.585 43.2164C342.284 43.2164 350.267 48.1517 350.567 62.9146V63.7729H314.346H314.303Z" fill="#FDFDFD"/>
<path d="M377.26 107.245H389.448V33.173H377.26V107.245ZM376.531 17.8092H390.135V3.60425H376.531V17.8092Z" fill="#FDFDFD"/>
<path d="M435.325 95.6579V107.245H424.339C409.705 107.245 404.598 98.9624 404.598 88.8343V16.6506H416.914V33.1731H435.068V44.7602H416.914V95.6579H435.325Z" fill="#FDFDFD"/>
<path d="M448.457 62.9146V77.5487C448.457 97.2469 460.473 108.577 479.056 108.577C497.638 108.577 509.483 97.2898 509.483 77.5487V62.9146C509.483 43.2164 497.595 31.8867 479.056 31.8867C460.516 31.8867 448.457 43.1735 448.457 62.9146ZM460.774 77.5487V62.9146C460.774 49.3104 468.327 43.5168 479.056 43.5168C489.785 43.5168 497.166 49.3104 497.166 62.9146V77.5487C497.166 92.612 489.785 96.9465 479.056 96.9465C468.327 96.9465 460.774 92.612 460.774 77.5487Z" fill="#FDFDFD"/>
<path d="M522.572 107.246H534.889V62.6141C534.889 48.8383 543.128 43.4739 552.999 43.4739C564.758 43.4739 570.68 50.1258 570.68 62.6141V107.246H582.997V59.8676C582.997 42.916 572.139 31.8867 555.745 31.8867C545.875 31.8867 538.794 35.2341 534.889 40.7273V33.1742H522.572V107.246Z" fill="#FDFDFD"/>
<path d="M697.452 107.246H711.528L680.243 5.79395H656.768L625.183 107.246H639.259L647.069 81.0246H689.685L697.495 107.246H697.452ZM650.503 69.4375L668.313 9.44175L686.123 69.4375H650.46H650.503Z" fill="#FDFDFD"/>
<path d="M733.458 107.245H755.774L779.85 33.1733H766.374L744.616 103.598L722.858 33.1733H709.383L733.415 107.245H733.458Z" fill="#FDFDFD"/>
<path d="M792.939 107.245H805.127V33.173H792.939V107.245ZM792.252 17.8092H805.856V3.60425H792.252V17.8092Z" fill="#FDFDFD"/>
<path d="M853.836 8.32392H864.736C874.135 8.32392 878.899 14.6325 878.899 23.988V28.0221C878.899 37.3776 874.135 43.6862 864.736 43.6862H853.836V8.32392ZM875.508 28.065V24.031C875.508 16.9499 872.59 11.6284 864.779 11.6284H857.226V40.4676H864.779C872.547 40.4676 875.508 35.146 875.508 28.065Z" fill="#FDFDFD"/>
<path d="M884.091 28.3654C884.091 21.4989 888.125 17.7224 894.477 17.7224C900.828 17.7224 904.691 21.1556 904.819 28.3654V32.0991H887.396V33.4723C887.396 39.0943 890.228 41.0684 894.477 41.0684C898.082 41.0684 900.871 39.6092 901.386 35.7039H904.691C904.133 41.1542 900.013 44.1583 894.477 44.1583C888.125 44.1583 884.091 40.3817 884.091 33.5153V28.3654ZM901.472 29.1808V28.3654C901.343 22.7864 898.425 20.6836 894.434 20.6836C890.185 20.6836 887.353 22.7864 887.353 28.3654V29.1808H901.472Z" fill="#FDFDFD"/>
<path d="M909.368 35.4894H912.587C912.587 39.3088 915.548 41.1113 919.625 41.1113C923.702 41.1113 926.234 39.3947 926.234 36.7768C926.234 34.9744 925.118 33.6011 922.243 32.8286L916.321 31.2837C912.587 30.3395 910.441 28.1079 910.441 24.6747C910.441 20.7694 913.66 17.7653 919.411 17.7653C925.161 17.7653 928.938 21.0698 928.938 25.7905H925.805C925.719 22.4431 923.101 20.7265 919.454 20.7265C915.806 20.7265 913.617 22.4002 913.617 24.6747C913.617 26.8205 915.205 27.7646 917.437 28.3654L922.973 29.7816C927.479 30.9403 929.539 33.2578 929.539 36.7339C929.539 41.0255 925.805 44.1583 919.625 44.1583C913.445 44.1583 909.454 41.24 909.326 35.4465H909.368V35.4894Z" fill="#FDFDFD"/>
<path d="M935.719 8.28101H939.667V12.5296H935.719V8.28101ZM936.019 18.1515H939.238V43.6862H936.019V18.1515Z" fill="#FDFDFD"/>
<path d="M946.662 46.9907H949.881C950.095 50.0806 951.511 52.7843 956.361 52.7843C961.897 52.7843 963.227 49.6085 963.227 45.9178V41.4117C961.554 43.2571 959.107 44.2012 956.146 44.2012C949.795 44.2012 945.804 40.4246 945.804 33.5582V28.4512C945.804 21.5848 949.795 17.8082 956.146 17.8082C959.107 17.8082 961.554 18.7524 963.227 20.5977V18.2803H966.489V46.0466C966.489 51.411 963.699 55.8742 956.318 55.8742C949.838 55.8742 946.748 52.0976 946.576 47.1194H946.619L946.662 46.9907ZM956.189 41.0684C960.223 41.0684 963.27 38.7509 963.27 33.4723V28.3654C963.27 22.7435 960.223 20.7694 956.189 20.7694C952.155 20.7694 949.151 22.7435 949.151 28.3654V33.4723C949.151 38.7509 952.284 41.0684 956.189 41.0684Z" fill="#FDFDFD"/>
<path d="M974.729 18.1515H977.99V21.4989C979.235 19.3532 981.767 17.7224 985.715 17.7224C991.509 17.7224 995.199 21.5419 995.199 27.2496V43.7291H991.895V28.0221C991.895 23.516 989.491 20.8552 985.028 20.8552C981.037 20.8552 977.99 23.2156 977.99 28.0221V43.7291H974.729V18.1515Z" fill="#FDFDFD"/>
<path d="M1001.42 33.4723V28.3654C1001.42 21.4989 1005.46 17.7224 1011.81 17.7224C1018.16 17.7224 1022.02 21.1556 1022.15 28.3654V32.0991H1004.73V33.4723C1004.73 39.0943 1007.56 41.0684 1011.81 41.0684C1015.41 41.0684 1018.2 39.6092 1018.72 35.7039H1021.98C1021.42 41.1542 1017.3 44.1583 1011.76 44.1583C1005.41 44.1583 1001.38 40.3817 1001.38 33.5153L1001.42 33.4723ZM1018.8 29.1808V28.3654C1018.72 22.7864 1015.76 20.6836 1011.76 20.6836C1007.52 20.6836 1004.68 22.7864 1004.68 28.3654V29.1808H1018.8Z" fill="#FDFDFD"/>
<path d="M1028.72 18.1515H1031.98V21.6706C1033.05 19.6965 1035.07 18.1515 1038.8 18.1515H1041.25V21.456H1038.8C1034.81 21.456 1031.98 23.7305 1031.98 29.095V43.7291H1028.72V18.1515Z" fill="#FDFDFD"/>
<path d="M853.836 90.5498C853.836 83.6834 857.827 79.9068 864.179 79.9068C867.14 79.9068 869.586 80.8509 871.26 82.6963V68.4913H874.521V105.914H871.26V103.596C869.586 105.441 867.14 106.386 864.179 106.386C857.827 106.386 853.836 102.609 853.836 95.7426V90.5498ZM864.179 103.253C868.213 103.253 871.26 101.279 871.26 95.6568V90.5498C871.26 85.2712 868.213 82.9538 864.179 82.9538C859.93 82.9538 857.14 85.2712 857.14 90.5498V95.6568C857.14 101.279 859.93 103.253 864.179 103.253Z" fill="#FDFDFD"/>
<path d="M880.701 95.6567V90.5498C880.701 83.6834 884.735 79.9068 891.086 79.9068C897.438 79.9068 901.3 83.34 901.429 90.5498V94.2835H884.048V95.6567C884.048 101.279 886.881 103.253 891.129 103.253C894.734 103.253 897.524 101.794 898.039 97.8884H901.343C900.785 103.339 896.666 106.343 891.129 106.343C884.778 106.343 880.744 102.566 880.744 95.6997L880.701 95.6567ZM898.125 91.3652V90.5498C898.039 84.9708 895.078 82.868 891.086 82.868C886.838 82.868 884.005 84.9708 884.005 90.5498V91.3652H898.125Z" fill="#FDFDFD"/>
<path d="M924.99 71.3666V105.871H921.599V70.4654H928.08L938.937 104.969L949.795 70.4654H956.275V105.871H952.885V71.3666L942.242 105.871H935.676L925.033 71.3666H924.99Z" fill="#FDFDFD"/>
<path d="M963.528 90.5498C963.528 83.6834 967.519 79.9068 973.87 79.9068C976.874 79.9068 979.278 80.8509 980.951 82.6963V80.3789H984.213V105.914H980.951V103.596C979.278 105.441 976.831 106.386 973.87 106.386C967.519 106.386 963.528 102.609 963.528 95.7426V90.5498ZM973.827 103.253C977.947 103.253 980.908 101.279 980.908 95.6567V90.5498C980.908 85.2712 977.947 82.9538 973.827 82.9538C969.707 82.9538 966.789 85.2712 966.789 90.5498V95.6567C966.789 101.279 969.579 103.253 973.827 103.253Z" fill="#FDFDFD"/>
<path d="M992.41 80.293H995.671V83.8121C996.744 81.838 998.761 80.293 1002.49 80.293H1004.94V83.5975H1002.49C998.504 83.5975 995.671 85.872 995.671 91.2365V105.871H992.41V80.293Z" fill="#FDFDFD"/>
<path d="M1007.69 90.5498C1007.69 83.6834 1011.72 79.9068 1018.07 79.9068C1023.91 79.9068 1028.07 83.0825 1028.37 89.0049H1025.11C1024.81 84.8421 1021.94 82.9538 1018.16 82.9538C1013.91 82.9538 1011.08 85.2712 1011.08 90.5498V95.6567C1011.08 101.279 1013.91 103.253 1018.16 103.253C1021.98 103.253 1024.94 101.579 1025.11 97.073H1028.37C1028.16 103.038 1023.95 106.343 1018.07 106.343C1011.72 106.343 1007.69 102.566 1007.69 95.6997V90.5498Z" fill="#FDFDFD"/>
<path d="M1032.96 90.5498C1032.96 83.6834 1036.96 79.9068 1043.31 79.9068C1046.27 79.9068 1048.71 80.8509 1050.39 82.6963V80.3789H1053.65V105.914H1050.39V103.596C1048.71 105.441 1046.27 106.386 1043.31 106.386C1036.96 106.386 1032.96 102.609 1032.96 95.7426V90.5498ZM1043.31 103.253C1047.43 103.253 1050.39 101.279 1050.39 95.6567V90.5498C1050.39 85.2712 1047.43 82.9538 1043.31 82.9538C1039.19 82.9538 1036.27 85.2712 1036.27 90.5498V95.6567C1036.27 101.279 1039.06 103.253 1043.31 103.253Z" fill="#FDFDFD"/>
<path d="M1059.83 97.6309H1063.05C1063.05 101.493 1066.01 103.253 1070.09 103.253C1074.16 103.253 1076.7 101.536 1076.7 98.9183C1076.7 97.1159 1075.58 95.7426 1072.7 94.9701L1066.78 93.4252C1063.05 92.481 1060.9 90.2494 1060.9 86.8162C1060.9 82.9109 1064.12 79.9068 1069.87 79.9068C1075.62 79.9068 1079.4 83.2113 1079.4 87.932H1076.27C1076.18 84.5846 1073.56 82.868 1069.91 82.868C1066.27 82.868 1064.08 84.5417 1064.08 86.8162C1064.08 88.9619 1065.67 89.9061 1067.9 90.5069L1073.43 91.9231C1077.94 93.0818 1080 95.3993 1080 98.8754C1080 103.167 1076.27 106.3 1070.09 106.3C1063.91 106.3 1059.92 103.382 1059.83 97.5879H1059.87L1059.83 97.6309Z" fill="#FDFDFD"/>
</svg>
