<svg width="810" height="115" viewBox="0 0 810 115" fill="none" xmlns="http://www.w3.org/2000/svg">
<path d="M103.419 0H41.9635L0 41.9635L72.7033 114.667L145.407 41.9635L103.419 0ZM93.8987 80.3363H51.4773L23.7174 52.5765L72.7033 3.59059L121.689 52.5765L93.9293 80.3363H93.9048H93.8987Z" fill="#FDFDFD"/>
<path d="M219.675 108.575C243.579 108.575 256.925 94.7991 258.814 73.2127H245.639C244.351 86.6881 237.099 96.2582 219.718 96.2582C200.148 96.2582 192.767 84.2419 192.767 65.2304V47.8497C192.767 28.8811 200.148 16.8218 219.718 16.8218C237.528 16.8218 244.351 26.9499 245.939 41.0261H259.114C257.355 18.8389 243.879 4.50513 219.675 4.50513C194.183 4.50513 179.678 20.1692 179.678 47.8497V65.2304C179.678 92.9108 194.183 108.575 219.675 108.575Z" fill="#FDFDFD"/>
<path d="M288.769 107.246H296.88V95.6584H284.263V0H271.946V92.1823C271.946 101.323 277.31 107.246 288.769 107.246Z" fill="#FDFDFD"/>
<path d="M332.542 108.534C348.936 108.534 361.382 99.5643 362.669 83.9002H350.352C349.065 93.7707 341.512 96.9465 332.542 96.9465C321.814 96.9465 314.261 92.612 314.261 77.5487V74.6305H362.798V62.9146C362.497 41.7573 349.88 31.8867 332.5 31.8867C313.96 31.8867 301.901 43.1735 301.901 62.9146V77.5487C301.901 97.2469 313.917 108.577 332.457 108.577L332.542 108.534ZM314.303 63.7729V62.9146C314.303 48.1517 321.857 43.2164 332.585 43.2164C342.284 43.2164 350.267 48.1517 350.567 62.9146V63.7729H314.346H314.303Z" fill="#FDFDFD"/>
<path d="M377.26 107.245H389.448V33.173H377.26V107.245ZM376.531 17.8092H390.135V3.60425H376.531V17.8092Z" fill="#FDFDFD"/>
<path d="M435.325 95.6579V107.245H424.339C409.705 107.245 404.598 98.9624 404.598 88.8343V16.6506H416.914V33.1731H435.068V44.7602H416.914V95.6579H435.325Z" fill="#FDFDFD"/>
<path d="M448.457 62.9146V77.5487C448.457 97.2469 460.473 108.577 479.056 108.577C497.638 108.577 509.483 97.2898 509.483 77.5487V62.9146C509.483 43.2164 497.595 31.8867 479.056 31.8867C460.516 31.8867 448.457 43.1735 448.457 62.9146ZM460.774 77.5487V62.9146C460.774 49.3104 468.327 43.5168 479.056 43.5168C489.785 43.5168 497.166 49.3104 497.166 62.9146V77.5487C497.166 92.612 489.785 96.9465 479.056 96.9465C468.327 96.9465 460.774 92.612 460.774 77.5487Z" fill="#FDFDFD"/>
<path d="M522.572 107.246H534.889V62.6141C534.889 48.8383 543.128 43.4739 552.999 43.4739C564.758 43.4739 570.68 50.1258 570.68 62.6141V107.246H582.997V59.8676C582.997 42.916 572.139 31.8867 555.745 31.8867C545.875 31.8867 538.794 35.2341 534.889 40.7273V33.1742H522.572V107.246Z" fill="#FDFDFD"/>
<path d="M697.452 107.246H711.528L680.243 5.79395H656.768L625.183 107.246H639.259L647.069 81.0246H689.685L697.495 107.246H697.452ZM650.503 69.4375L668.313 9.44175L686.123 69.4375H650.46H650.503Z" fill="#FDFDFD"/>
<path d="M733.458 107.245H755.774L779.85 33.1733H766.374L744.616 103.598L722.858 33.1733H709.383L733.415 107.245H733.458Z" fill="#FDFDFD"/>
<path d="M792.939 107.245H805.127V33.173H792.939V107.245ZM792.252 17.8092H805.856V3.60425H792.252V17.8092Z" fill="#FDFDFD"/>
</svg>
